<svg width="799" height="130" viewBox="0 0 799 130" fill="none" xmlns="http://www.w3.org/2000/svg">
<g clip-path="url(#clip0_325_5004)">
<path d="M90.0434 110.821H68.0523L41.991 73.7829H18.6529V110.821H0V4.54541H47.2911C59.5312 4.54541 69.1358 7.56594 76.1636 13.5777C83.1913 19.5894 86.7052 27.8299 86.7052 38.2404C86.7052 46.7448 84.4212 53.7243 79.8824 59.1788C75.3437 64.6334 69.1651 68.4457 61.3759 70.5571L90.0434 110.821ZM67.7595 39.3255C67.7595 33.5483 65.8269 29.1495 61.9909 26.129C58.1549 23.0791 52.7376 21.5835 45.7684 21.5835H18.6529V57.2727H45.9441C52.6205 57.2727 57.9206 55.6598 61.8737 52.4046C65.7976 49.1202 67.7595 44.78 67.7595 39.3255Z" fill="black"/>
<path d="M113.85 77.2728C114.845 83.6364 117.422 88.6217 121.58 92.2288C125.709 95.8358 130.834 97.6247 136.895 97.6247C144.772 97.6247 152.005 94.4282 158.564 88.0645L169.34 97.6247C161.053 107.654 150.131 112.639 136.602 112.639C124.889 112.639 115.109 108.739 107.261 100.938C99.4429 93.1378 95.519 83.1379 95.519 70.8798C95.519 59.1496 99.2086 49.2376 106.588 41.1144C113.967 33.0206 123.308 28.9736 134.64 28.9736C146.88 28.9736 156.309 33.1085 162.986 41.349C169.662 49.5895 173 59.8827 173 72.2288C173 73.1379 172.912 74.8094 172.707 77.2434H113.85V77.2728ZM113.674 65.132H154.757C154.142 58.9736 152.093 53.9003 148.55 49.9414C145.006 45.9824 140.321 44.0176 134.465 44.0176C128.901 44.0176 124.245 45.9531 120.526 49.8534C116.778 53.7537 114.494 58.8563 113.674 65.132Z" fill="black"/>
<path d="M253.586 97.6246C249.252 102.493 244.508 106.188 239.413 108.768C234.318 111.349 228.11 112.639 220.848 112.639C209.018 112.639 199.179 108.592 191.302 100.499C183.425 92.4047 179.472 82.5806 179.472 71.0557C179.472 59.4135 183.425 49.5015 191.361 41.2903C199.296 33.0792 209.165 29.0029 220.995 29.0029C233.937 29.0029 244.596 33.607 252.971 42.8152L241.609 55.1026C235.255 48.4164 228.315 45.0733 220.848 45.0733C214.289 45.0733 208.784 47.566 204.392 52.522C199.999 57.478 197.803 63.5484 197.803 70.7331C197.803 78.0059 200.058 84.1642 204.538 89.1789C209.047 94.1935 214.757 96.6862 221.756 96.6862C229.135 96.6862 236.046 93.3431 242.517 86.6569L253.586 97.6246Z" fill="black"/>
<path d="M282.253 110.821H263.922V0H282.253V110.821Z" fill="black"/>
<path d="M351.213 75.8943V30.6743H369.544V110.821H351.213V98.3869C344.859 107.8 336.514 112.493 326.206 112.493C317.304 112.493 310.335 109.707 305.299 104.135C300.233 98.5629 297.714 91.0849 297.714 81.6714V30.6743H316.045V76.2168C316.045 82.4925 317.539 87.3312 320.525 90.7036C323.512 94.1054 327.729 95.777 333.175 95.777C338.534 95.777 342.868 94.0174 346.206 90.469C349.544 86.95 351.213 82.0819 351.213 75.8943Z" fill="black"/>
<path d="M407.143 46.4515V85.777C407.143 92.4632 410.422 95.8063 416.982 95.8063C420.935 95.8063 424.712 94.8972 428.343 93.079V108.123C423.482 110.85 417.977 112.229 411.828 112.229C396.455 112.229 388.783 104.399 388.783 88.7095V46.4515H378.622V30.6743H388.783V8.65088H407.113V30.6743H428.636V46.4515H407.143Z" fill="black"/>
<path d="M506.732 110.821H488.548V100.938C482.076 108.622 473.438 112.463 462.633 112.463C454.639 112.463 447.904 110.264 442.399 105.865C436.894 101.466 434.141 95.4253 434.141 87.7127V87.4194C434.141 79.0323 437.128 72.61 443.072 68.2112C449.046 63.8124 456.864 61.613 466.557 61.613C474.346 61.613 481.725 62.7273 488.694 64.9561V62.9913C488.694 57.4194 486.996 53.1672 483.628 50.2347C480.232 47.3021 475.371 45.8358 468.987 45.8358C461.725 45.8358 454.082 47.5074 446.088 50.8505L441.081 36.1291C450.979 31.6716 461.14 29.4429 471.535 29.4429C483.16 29.4429 491.915 32.3754 497.83 38.2405C503.745 44.1056 506.703 52.4634 506.703 63.2845V110.821H506.732ZM488.987 81.8182V76.8036C483.541 74.6921 477.421 73.6071 470.656 73.6071C464.888 73.6071 460.407 74.7508 457.157 77.0089C453.907 79.2962 452.296 82.4634 452.296 86.5103V86.8036C452.296 90.4399 453.76 93.3432 456.689 95.4546C459.617 97.5954 463.306 98.6511 467.757 98.6511C473.907 98.6511 479.002 97.0968 482.984 93.959C486.996 90.8212 488.987 86.7742 488.987 81.8182Z" fill="black"/>
<path d="M539.323 65.5718V110.821H520.993V30.6745H539.323V43.1378C545.678 33.7243 554.023 29.0322 564.331 29.0322C573.233 29.0322 580.202 31.8182 585.238 37.39C590.304 42.9618 592.822 50.4398 592.822 59.8533V110.85H574.492V65.2786C574.492 59.0029 572.998 54.1642 570.011 50.7918C567.025 47.39 562.808 45.7184 557.361 45.7184C552.003 45.7184 547.669 47.478 544.331 51.0264C540.993 54.5454 539.323 59.4135 539.323 65.5718Z" fill="black"/>
<path d="M686.058 110.821H667.727V97.4487C660.641 107.478 651.563 112.463 640.436 112.463C630.421 112.463 621.754 108.68 614.374 101.144C606.995 93.607 603.306 83.4604 603.306 70.7038C603.306 57.9472 606.966 47.8006 614.287 40.2639C621.607 32.7273 630.333 28.9443 640.436 28.9443C651.358 28.9443 660.436 33.6364 667.727 43.0499V0H686.058V110.821ZM661.197 89.3255C665.736 84.5161 668.02 78.3284 668.02 70.7331C668.02 63.1378 665.736 56.9501 661.197 52.1408C656.658 47.3314 651.182 44.9267 644.828 44.9267C638.357 44.9267 632.91 47.2727 628.459 51.9941C624.008 56.6862 621.783 62.9619 621.783 70.7331C621.783 78.4164 624.038 84.6628 628.518 89.4135C633.027 94.1642 638.445 96.5396 644.828 96.5396C651.182 96.5396 656.658 94.1349 661.197 89.3255Z" fill="black"/>
<path d="M798.063 117.566L781.84 101.613C780.61 100.41 778.619 100.41 777.419 101.642L777.36 101.701L772.734 97.1553C778.619 89.8826 781.577 81.3782 781.577 71.6128C781.577 60.1758 777.594 50.4984 769.6 42.5512C761.606 34.604 751.679 30.645 739.762 30.645C727.844 30.645 717.888 34.6626 709.864 42.7271C701.841 50.7623 697.8 60.4984 697.8 71.9353C697.8 83.255 701.753 92.9031 709.688 100.85C717.624 108.798 727.551 112.786 739.439 112.786C749.688 112.786 758.444 109.853 765.794 104.047L770.508 108.68L770.449 108.739C769.249 109.971 769.249 111.965 770.479 113.167L786.672 129.149C787.902 130.352 789.893 130.322 791.094 129.12L798.034 122.053C799.293 120.762 799.293 118.768 798.063 117.566ZM751.474 99.6479C747.785 101.232 743.861 102.023 739.674 102.023C735.486 102.023 731.562 101.232 727.873 99.6479C724.183 98.0644 720.991 95.8943 718.268 93.167C715.545 90.4397 713.378 87.2433 711.797 83.5482C710.216 79.8532 709.425 75.9236 709.425 71.7301C709.425 67.5365 710.216 63.6069 711.797 59.9119C713.378 56.2169 715.545 53.0204 718.268 50.2931C720.991 47.5658 724.183 45.3958 727.873 43.8122C731.562 42.2286 735.486 41.4368 739.674 41.4368C743.861 41.4368 747.785 42.2286 751.474 43.8122C755.164 45.3958 758.356 47.5658 761.079 50.2931C763.802 53.0204 765.969 56.2169 767.55 59.9119C769.132 63.6069 769.922 67.5365 769.922 71.7301C769.922 75.9236 769.132 79.8532 767.55 83.5482C765.969 87.2433 763.802 90.4397 761.079 93.167C758.356 95.8943 755.164 98.035 751.474 99.6479Z" fill="black"/>
<path d="M739.673 48.2695C733.173 48.2695 727.668 50.5569 723.1 55.1317C718.532 59.7065 716.248 65.249 716.248 71.7299C716.248 74.6038 716.716 77.3311 717.682 79.8824C718.649 82.4338 719.966 84.6918 721.665 86.686C724.154 84.7798 726.936 83.2842 730.01 82.1698C733.085 81.0555 736.306 80.5276 739.673 80.5276C743.041 80.5276 746.262 81.0848 749.337 82.1698C752.411 83.2549 755.193 84.7798 757.682 86.686C759.381 84.6918 760.727 82.4044 761.665 79.8824C762.602 77.3604 763.099 74.6332 763.099 71.7299C763.099 65.2197 760.815 59.7065 756.247 55.1317C751.709 50.5569 746.174 48.2695 739.673 48.2695ZM746.965 71.6713C745.003 73.6361 742.572 74.6332 739.673 74.6332C736.775 74.6332 734.373 73.6361 732.382 71.6713C730.391 69.7065 729.425 67.2725 729.425 64.3692C729.425 61.4953 730.42 59.0613 732.382 57.0672C734.344 55.0731 736.775 54.1053 739.673 54.1053C742.572 54.1053 744.974 55.1024 746.965 57.0672C748.956 59.032 749.922 61.466 749.922 64.3692C749.922 67.2725 748.927 69.7065 746.965 71.6713Z" fill="black"/>
</g>
<defs>
<clipPath id="clip0_325_5004">
<rect width="799" height="130" fill="white"/>
</clipPath>
</defs>
</svg>
