<svg width="56" height="56" viewBox="0 0 56 56" fill="none" xmlns="http://www.w3.org/2000/svg">
<mask id="mask0_1254_78" style="mask-type:alpha" maskUnits="userSpaceOnUse" x="0" y="0" width="56" height="56">
<rect width="56" height="56" fill="#D9D9D9"/>
</mask>
<g mask="url(#mask0_1254_78)">
<path d="M2.33333 49.0001L28 4.66675L53.6667 49.0001H2.33333ZM28 42.0001C28.6611 42.0001 29.2153 41.7765 29.6625 41.3292C30.1097 40.882 30.3333 40.3279 30.3333 39.6667C30.3333 39.0056 30.1097 38.4515 29.6625 38.0042C29.2153 37.557 28.6611 37.3334 28 37.3334C27.3389 37.3334 26.7847 37.557 26.3375 38.0042C25.8903 38.4515 25.6667 39.0056 25.6667 39.6667C25.6667 40.3279 25.8903 40.882 26.3375 41.3292C26.7847 41.7765 27.3389 42.0001 28 42.0001ZM25.6667 35.0001H30.3333V23.3334H25.6667V35.0001Z" fill="#473E83"/>
</g>
</svg>
