<svg width="32" height="32" viewBox="0 0 32 32" fill="none" xmlns="http://www.w3.org/2000/svg">
<g id="bowl">
<path id="Vector" d="M21.3333 29.3333C21.3333 29.3333 21.3333 26.757 21.3343 26.7521C21.7991 26.5211 22.2468 26.2609 22.6749 25.9737C23.3264 25.5369 23.9327 25.0379 24.4853 24.4853C26.6569 22.3137 28 19.3137 28 16H4C4 19.3137 5.34315 22.3137 7.51473 24.4853C8.0724 25.043 8.68473 25.546 9.343 25.9857C9.76867 26.2701 10.2136 26.528 10.6754 26.757L10.6667 29.3333H21.3333Z" stroke="#03314B" stroke-width="2" stroke-linecap="round" stroke-linejoin="round"/>
<path id="Vector_2" d="M16 12.0055V5.33331" stroke="#03314B" stroke-width="2" stroke-linecap="round" stroke-linejoin="round"/>
<path id="Vector_3" d="M24 12.0055V8" stroke="#03314B" stroke-width="2" stroke-linecap="round" stroke-linejoin="round"/>
<path id="Vector_4" d="M8 12.0055V8" stroke="#03314B" stroke-width="2" stroke-linecap="round" stroke-linejoin="round"/>
<path id="Vector_5" d="M26.6667 5.33331C25.1939 5.33331 24 6.52722 24 7.99998" stroke="#03314B" stroke-width="2" stroke-linecap="round" stroke-linejoin="round"/>
<path id="Vector_6" d="M18.6667 2.66669C17.1939 2.66669 16 3.86059 16 5.33335" stroke="#03314B" stroke-width="2" stroke-linecap="round" stroke-linejoin="round"/>
<path id="Vector_7" d="M10.6667 5.33331C9.19393 5.33331 8 6.52722 8 7.99998" stroke="#03314B" stroke-width="2" stroke-linecap="round" stroke-linejoin="round"/>
</g>
</svg>
