<svg width="24" height="24" viewBox="0 0 24 24" fill="none" xmlns="http://www.w3.org/2000/svg">
<mask id="mask0_1254_596" style="mask-type:alpha" maskUnits="userSpaceOnUse" x="0" y="0" width="24" height="24">
<rect width="24" height="24" fill="#D9D9D9"/>
</mask>
<g mask="url(#mask0_1254_596)">
<path d="M11 14.5L5.07501 13.75C4.65835 13.7 4.38751 13.475 4.26251 13.075C4.13751 12.675 4.22501 12.3333 4.52501 12.05L14.75 2.25C14.8333 2.16667 14.9333 2.10417 15.05 2.0625C15.1667 2.02083 15.325 2 15.525 2C15.8583 2 16.1125 2.14167 16.2875 2.425C16.4625 2.70833 16.4667 3 16.3 3.3L13 9.5L18.925 10.25C19.3417 10.3 19.6125 10.525 19.7375 10.925C19.8625 11.325 19.775 11.6667 19.475 11.95L9.25001 21.75C9.16668 21.8333 9.06668 21.8958 8.95001 21.9375C8.83335 21.9792 8.67501 22 8.47501 22C8.14168 22 7.88751 21.8583 7.71251 21.575C7.53751 21.2917 7.53335 21 7.70001 20.7L11 14.5Z" fill="#69BA00"/>
<path d="M11 14.5L5.07501 13.75C4.65835 13.7 4.38751 13.475 4.26251 13.075C4.13751 12.675 4.22501 12.3333 4.52501 12.05L14.75 2.25C14.8333 2.16667 14.9333 2.10417 15.05 2.0625C15.1667 2.02083 15.325 2 15.525 2C15.8583 2 16.1125 2.14167 16.2875 2.425C16.4625 2.70833 16.4667 3 16.3 3.3L13 9.5L18.925 10.25C19.3417 10.3 19.6125 10.525 19.7375 10.925C19.8625 11.325 19.775 11.6667 19.475 11.95L9.25001 21.75C9.16668 21.8333 9.06668 21.8958 8.95001 21.9375C8.83335 21.9792 8.67501 22 8.47501 22C8.14168 22 7.88751 21.8583 7.71251 21.575C7.53751 21.2917 7.53335 21 7.70001 20.7L11 14.5Z" fill="black" fill-opacity="0.2"/>
</g>
</svg>
