<svg width="25" height="24" viewBox="0 0 25 24" fill="none" xmlns="http://www.w3.org/2000/svg">
<rect x="0.200012" width="24" height="24" rx="12" fill="#E6E6E6"/>
<mask id="mask0_1092_1856" style="mask-type:alpha" maskUnits="userSpaceOnUse" x="4" y="4" width="17" height="16">
<rect x="4.20001" y="4" width="16" height="16" fill="#D9D9D9"/>
</mask>
<g mask="url(#mask0_1092_1856)">
<path d="M8.86668 18C8.50002 18 8.18613 17.8694 7.92502 17.6083C7.66391 17.3472 7.53335 17.0333 7.53335 16.6667V8C7.34446 8 7.18613 7.93611 7.05835 7.80833C6.93057 7.68056 6.86668 7.52222 6.86668 7.33333C6.86668 7.14444 6.93057 6.98611 7.05835 6.85833C7.18613 6.73056 7.34446 6.66667 7.53335 6.66667H10.2C10.2 6.47778 10.2639 6.31944 10.3917 6.19167C10.5195 6.06389 10.6778 6 10.8667 6H13.5334C13.7222 6 13.8806 6.06389 14.0084 6.19167C14.1361 6.31944 14.2 6.47778 14.2 6.66667H16.8667C17.0556 6.66667 17.2139 6.73056 17.3417 6.85833C17.4695 6.98611 17.5333 7.14444 17.5333 7.33333C17.5333 7.52222 17.4695 7.68056 17.3417 7.80833C17.2139 7.93611 17.0556 8 16.8667 8V16.6667C16.8667 17.0333 16.7361 17.3472 16.475 17.6083C16.2139 17.8694 15.9 18 15.5334 18H8.86668ZM10.2 14.6667C10.2 14.8556 10.2639 15.0139 10.3917 15.1417C10.5195 15.2694 10.6778 15.3333 10.8667 15.3333C11.0556 15.3333 11.2139 15.2694 11.3417 15.1417C11.4695 15.0139 11.5334 14.8556 11.5334 14.6667V10C11.5334 9.81111 11.4695 9.65278 11.3417 9.525C11.2139 9.39722 11.0556 9.33333 10.8667 9.33333C10.6778 9.33333 10.5195 9.39722 10.3917 9.525C10.2639 9.65278 10.2 9.81111 10.2 10V14.6667ZM12.8667 14.6667C12.8667 14.8556 12.9306 15.0139 13.0584 15.1417C13.1861 15.2694 13.3445 15.3333 13.5334 15.3333C13.7222 15.3333 13.8806 15.2694 14.0084 15.1417C14.1361 15.0139 14.2 14.8556 14.2 14.6667V10C14.2 9.81111 14.1361 9.65278 14.0084 9.525C13.8806 9.39722 13.7222 9.33333 13.5334 9.33333C13.3445 9.33333 13.1861 9.39722 13.0584 9.525C12.9306 9.65278 12.8667 9.81111 12.8667 10V14.6667Z" fill="#A0A0A0"/>
</g>
</svg>
