<svg width="24" height="24" viewBox="0 0 24 24" fill="none" xmlns="http://www.w3.org/2000/svg">
<mask id="mask0_1621_3956" style="mask-type:alpha" maskUnits="userSpaceOnUse" x="0" y="0" width="24" height="24">
<rect width="24" height="24" fill="#D9D9D9"/>
</mask>
<g mask="url(#mask0_1621_3956)">
<path d="M12 17.5C12.4167 17.5 12.7708 17.3542 13.0625 17.0625C13.3542 16.7708 13.5 16.4167 13.5 16V15H14.5C14.9167 15 15.2708 14.8542 15.5625 14.5625C15.8542 14.2708 16 13.9167 16 13.5C16 13.0833 15.8542 12.7292 15.5625 12.4375C15.2708 12.1458 14.9167 12 14.5 12H13.5V11C13.5 10.5833 13.3542 10.2292 13.0625 9.9375C12.7708 9.64583 12.4167 9.5 12 9.5C11.5833 9.5 11.2292 9.64583 10.9375 9.9375C10.6458 10.2292 10.5 10.5833 10.5 11V12H9.5C9.08333 12 8.72917 12.1458 8.4375 12.4375C8.14583 12.7292 8 13.0833 8 13.5C8 13.9167 8.14583 14.2708 8.4375 14.5625C8.72917 14.8542 9.08333 15 9.5 15H10.5V16C10.5 16.4167 10.6458 16.7708 10.9375 17.0625C11.2292 17.3542 11.5833 17.5 12 17.5ZM7 21C6.45 21 5.97917 20.8042 5.5875 20.4125C5.19583 20.0208 5 19.55 5 19V8C5 7.45 5.19583 6.97917 5.5875 6.5875C5.97917 6.19583 6.45 6 7 6H17C17.55 6 18.0208 6.19583 18.4125 6.5875C18.8042 6.97917 19 7.45 19 8V19C19 19.55 18.8042 20.0208 18.4125 20.4125C18.0208 20.8042 17.55 21 17 21H7ZM7 5C6.71667 5 6.47917 4.90417 6.2875 4.7125C6.09583 4.52083 6 4.28333 6 4C6 3.71667 6.09583 3.47917 6.2875 3.2875C6.47917 3.09583 6.71667 3 7 3H17C17.2833 3 17.5208 3.09583 17.7125 3.2875C17.9042 3.47917 18 3.71667 18 4C18 4.28333 17.9042 4.52083 17.7125 4.7125C17.5208 4.90417 17.2833 5 17 5H7Z" fill="#1C1B1F"/>
</g>
</svg>
