<svg width="24" height="24" viewBox="0 0 24 24" fill="none" xmlns="http://www.w3.org/2000/svg">
<mask id="mask0_1621_3961" style="mask-type:alpha" maskUnits="userSpaceOnUse" x="0" y="0" width="24" height="24">
<rect width="24" height="24" fill="#D9D9D9"/>
</mask>
<g mask="url(#mask0_1621_3961)">
<path d="M21.9992 16.9999C21.7159 16.9999 21.4784 16.9041 21.2867 16.7124C21.0951 16.5207 20.9992 16.2832 20.9992 15.9999V10.0999L12.9742 14.4749C12.8242 14.5582 12.6701 14.6207 12.5117 14.6624C12.3534 14.7041 12.1826 14.7249 11.9992 14.7249C11.8159 14.7249 11.6451 14.7041 11.4867 14.6624C11.3284 14.6207 11.1742 14.5582 11.0242 14.4749L2.59922 9.8749C2.43255 9.79157 2.30339 9.67074 2.21172 9.5124C2.12005 9.35407 2.07422 9.18324 2.07422 8.9999C2.07422 8.81657 2.12005 8.64574 2.21172 8.4874C2.30339 8.32907 2.43255 8.20824 2.59922 8.1249L11.0492 3.5249C11.1992 3.44157 11.3534 3.37907 11.5117 3.3374C11.6701 3.29574 11.8326 3.2749 11.9992 3.2749C12.1659 3.2749 12.3284 3.29574 12.4867 3.3374C12.6451 3.37907 12.7992 3.44157 12.9492 3.5249L22.4742 8.7249C22.6409 8.80824 22.7701 8.92907 22.8617 9.0874C22.9534 9.24574 22.9992 9.41657 22.9992 9.5999V15.9999C22.9992 16.2832 22.9034 16.5207 22.7117 16.7124C22.5201 16.9041 22.2826 16.9999 21.9992 16.9999ZM11.9992 20.7249C11.8326 20.7249 11.6701 20.7041 11.5117 20.6624C11.3534 20.6207 11.1992 20.5582 11.0492 20.4749L6.04922 17.7749C5.71589 17.5916 5.45755 17.3457 5.27422 17.0374C5.09089 16.7291 4.99922 16.3832 4.99922 15.9999V12.1999L10.6742 15.2749C10.8909 15.3916 11.1076 15.4957 11.3242 15.5874C11.5409 15.6791 11.7659 15.7249 11.9992 15.7249C12.2326 15.7249 12.4617 15.6749 12.6867 15.5749C12.9117 15.4749 13.1326 15.3666 13.3492 15.2499L18.9992 12.1999V15.9999C18.9992 16.3832 18.9076 16.7291 18.7242 17.0374C18.5409 17.3457 18.2826 17.5916 17.9492 17.7749L12.9492 20.4749C12.7992 20.5582 12.6451 20.6207 12.4867 20.6624C12.3284 20.7041 12.1659 20.7249 11.9992 20.7249Z" fill="#1C1B1F"/>
</g>
</svg>
