<svg width="25" height="25" viewBox="0 0 25 25" fill="none" xmlns="http://www.w3.org/2000/svg">
<mask id="mask0_1203_2440" style="mask-type:alpha" maskUnits="userSpaceOnUse" x="0" y="0" width="25" height="25">
<rect x="0.25" y="0.25" width="24.5" height="24.5" fill="#D9D9D9"/>
</mask>
<g mask="url(#mask0_1203_2440)">
<path d="M19.5438 20.9729L13.8271 15.2563C13.3167 15.6646 12.7297 15.9878 12.0661 16.226C11.4026 16.4642 10.6965 16.5833 9.94792 16.5833C8.0934 16.5833 6.52387 15.9411 5.23932 14.6565C3.95477 13.372 3.3125 11.8024 3.3125 9.94792C3.3125 8.0934 3.95477 6.52387 5.23932 5.23932C6.52387 3.95477 8.0934 3.3125 9.94792 3.3125C11.8024 3.3125 13.372 3.95477 14.6565 5.23932C15.9411 6.52387 16.5833 8.0934 16.5833 9.94792C16.5833 10.6965 16.4642 11.4026 16.226 12.0661C15.9878 12.7297 15.6646 13.3167 15.2563 13.8271L20.9984 19.5693C21.1856 19.7564 21.2792 19.9861 21.2792 20.2583C21.2792 20.5306 21.1771 20.7688 20.9729 20.9729C20.7858 21.1601 20.5476 21.2536 20.2583 21.2536C19.9691 21.2536 19.7309 21.1601 19.5438 20.9729ZM9.94792 14.5417C11.224 14.5417 12.3086 14.0951 13.2018 13.2018C14.0951 12.3086 14.5417 11.224 14.5417 9.94792C14.5417 8.67188 14.0951 7.58724 13.2018 6.69401C12.3086 5.80078 11.224 5.35417 9.94792 5.35417C8.67188 5.35417 7.58724 5.80078 6.69401 6.69401C5.80078 7.58724 5.35417 8.67188 5.35417 9.94792C5.35417 11.224 5.80078 12.3086 6.69401 13.2018C7.58724 14.0951 8.67188 14.5417 9.94792 14.5417Z" fill="#070729"/>
</g>
</svg>
